<?xml version="1.0" ?><!DOCTYPE svg  PUBLIC '-//W3C//DTD SVG 1.1//EN'  'http://www.w3.org/Graphics/SVG/1.1/DTD/svg11.dtd'><svg height="8.4666mm" style="shape-rendering:geometricPrecision; text-rendering:geometricPrecision; image-rendering:optimizeQuality; fill-rule:evenodd; clip-rule:evenodd" version="1.1" viewBox="0 0 846.66 846.66" width="8.4666mm" xml:space="preserve" xmlns="http://www.w3.org/2000/svg" xmlns:xlink="http://www.w3.org/1999/xlink"><defs><style type="text/css">
   <![CDATA[
    .fil0 {fill:black;fill-rule:nonzero}
   ]]>
  </style></defs><g id="Layer_x0020_1"><path class="fil0" d="M794.43 413.72c0,-27.14 41.27,-27.14 41.27,0l0 367.7c0,11.39 -9.24,20.63 -20.64,20.63 -261.15,0 -522.31,0 -783.46,0 -11.4,0 -20.63,-9.24 -20.63,-20.63l0 -367.7c0,-27.14 41.26,-27.14 41.26,0l0 347.07 92.12 0 0 -200.47c0,-11.4 9.23,-20.63 20.63,-20.63l108.14 0c11.4,0 20.64,9.23 20.64,20.63l0 200.47 54.86 0 0 -375.91c0,-11.39 9.24,-20.63 20.63,-20.63l108.15 0c11.4,0 20.63,9.24 20.63,20.63l0 375.91 54.87 0 0 -695.55c0,-11.39 9.24,-20.63 20.64,-20.63l108.14 0c11.4,0 20.63,9.24 20.63,20.63l0 695.55 92.12 0 0 -347.07zm-596.01 -273.52c0,-27.13 41.26,-27.13 41.26,0l0 10.39 41.94 0c27.14,0 27.14,41.26 0,41.26l-41.94 0 0 52.87 10.93 0c37.17,0 67.69,30.52 67.69,67.69 0,37.28 -30.42,67.7 -67.69,67.7l-10.93 0 0 10.38c0,27.14 -41.26,27.14 -41.26,0l0 -10.38 -41.94 0c-27.14,0 -27.14,-41.27 0,-41.27l41.94 0 0 -52.86 -10.92 0c-37.21,0 -67.69,-30.47 -67.69,-67.69 0,-37.28 30.41,-67.7 67.69,-67.7l10.92 0 0 -10.39zm41.26 145.78l0 52.86 10.93 0c14.49,0 26.43,-11.94 26.43,-26.43 0,-14.58 -11.85,-26.43 -26.43,-26.43l-10.93 0zm-41.26 -41.26l0 -52.87 -10.92 0c-14.49,0 -26.43,11.94 -26.43,26.44 0,14.55 11.9,26.43 26.43,26.43l10.92 0zm395.75 516.07l66.88 0 0 -674.92 -66.88 0 0 674.92zm-204.28 0l66.88 0 0 -355.28 -66.88 0 0 355.28zm-204.28 0l66.88 0 0 -179.84 -66.88 0 0 179.84z"/></g></svg>