<?xml version="1.0" ?><!DOCTYPE svg  PUBLIC '-//W3C//DTD SVG 1.1//EN'  'http://www.w3.org/Graphics/SVG/1.1/DTD/svg11.dtd'><svg enable-background="new 0 0 32 32" height="32px" id="Layer_1" version="1.1" viewBox="0 0 32 32" width="32px" xml:space="preserve" xmlns="http://www.w3.org/2000/svg" xmlns:xlink="http://www.w3.org/1999/xlink"><g><polyline fill="none" points="   649,137.999 675,137.999 675,155.999 661,155.999  " stroke="#FFFFFF" stroke-linecap="round" stroke-linejoin="round" stroke-miterlimit="10" stroke-width="2"/><polyline fill="none" points="   653,155.999 649,155.999 649,141.999  " stroke="#FFFFFF" stroke-linecap="round" stroke-linejoin="round" stroke-miterlimit="10" stroke-width="2"/><polyline fill="none" points="   661,156 653,162 653,156  " stroke="#FFFFFF" stroke-linecap="round" stroke-linejoin="round" stroke-miterlimit="10" stroke-width="2"/></g><path d="M27.02,7.383c0-0.001-0.001-0.001-0.002-0.001C24.34,3.962,20.324,2,16,2C11.675,2,7.659,3.962,4.979,7.383  c-0.283,0.362-0.283,0.871,0,1.233C7.659,12.038,11.675,14,16,14c3.88,0,7.503-1.589,10.143-4.385C27.357,11.529,28,13.711,28,16  c0,2.288-0.643,4.471-1.857,6.385C23.503,19.589,19.88,18,16,18c-3.879,0-7.502,1.589-10.143,4.385C4.643,20.471,4,18.289,4,16  c0-1.249,0.197-2.491,0.585-3.692c0.17-0.525-0.119-1.089-0.644-1.259c-0.526-0.169-1.089,0.119-1.259,0.644  C2.229,13.092,2,14.542,2,16c0,3.147,1.03,6.127,2.979,8.616c0,0.001,0.001,0.001,0.002,0.001C7.66,28.038,11.676,30,16,30  c4.325,0,8.342-1.962,11.02-5.384C28.97,22.127,30,19.147,30,16S28.97,9.873,27.02,7.383z M16,12c-3.438,0-6.649-1.448-8.93-4  c2.28-2.552,5.492-4,8.93-4c3.438,0,6.649,1.448,8.93,4C22.649,10.552,19.438,12,16,12z M16,28c-3.438,0-6.649-1.448-8.93-4  c2.281-2.552,5.492-4,8.93-4c3.438,0,6.649,1.448,8.93,4C22.649,26.552,19.438,28,16,28z"/></svg>